<svg width="125" height="48" fill="none" xmlns="http://www.w3.org/2000/svg"><path d="M50.256 26.893c-.127 1.7-.725 3.062-1.792 4.087-1.055 1.011-2.427 1.517-4.117 1.517-1.919 0-3.456-.661-4.613-1.985C38.578 29.19 38 27.432 38 25.24c0-1.323.248-2.523.743-3.6a6.168 6.168 0 012.23-2.627c.992-.675 2.154-1.012 3.488-1.012 1.436 0 2.688.409 3.755 1.226 1.068.804 1.71 1.972 1.925 3.503h-2.363c-.165-.83-.547-1.48-1.144-1.946-.597-.48-1.334-.72-2.21-.72-.903 0-1.672.26-2.307.778a4.31 4.31 0 00-1.334 1.927 7.679 7.679 0 00-.381 2.47c0 .675.076 1.311.228 1.908a6.13 6.13 0 00.686 1.654 3.43 3.43 0 001.24 1.187c.533.298 1.15.448 1.848.448 2.02 0 3.177-1.18 3.47-3.542h2.382zm3.501-8.64v2.18h-2.173v-2.18h2.173zm0 3.872v10.041h-2.173v-10.04h2.173zm6.598 0v1.616h-1.982v5.293c0 .31.007.531.02.661.012.117.05.253.114.409a.52.52 0 00.324.292 2.3 2.3 0 00.667.078c.355 0 .641-.014.857-.04v1.752c-.432.052-.92.078-1.467.078a4.68 4.68 0 01-1.01-.098 3.655 3.655 0 01-.706-.194 1.069 1.069 0 01-.476-.39l-.305-.466c-.064-.13-.114-.35-.153-.662a9.436 9.436 0 01-.038-.7v-6.013h-1.639v-1.616h1.64V19.11h2.172v3.016h1.982z" fill="#1F2E3C"/><path d="M70 22.125l-3.64 9.847c-.039.09-.109.279-.21.564-.102.299-.172.5-.21.603-.038.104-.114.286-.228.545a3.95 3.95 0 01-.248.545l-.286.467a1.721 1.721 0 01-.362.448c-.102.09-.235.2-.4.33-.153.143-.312.24-.477.293a3.052 3.052 0 01-.572.155A2.694 2.694 0 0162.7 36c-.407 0-.909-.039-1.506-.117v-1.868c.458.09.839.136 1.144.136a1.1 1.1 0 00.42-.078.743.743 0 00.342-.233c.102-.104.19-.208.267-.311.076-.091.146-.227.21-.409a6.387 6.387 0 00.324-.856c.063-.208.101-.338.114-.39l-3.774-9.749h2.383l2.63 7.395 2.478-7.395H70z" fill="#1F2E3C"/><path d="M83.502 22.397H81.25c-.139-1.636-1.116-2.454-2.933-2.454-.807 0-1.438.177-1.892.53-.454.34-.681.812-.681 1.414 0 .562.164.948.492 1.158.34.21 1.085.464 2.233.765.302.092.536.157.7.197 1.5.392 2.523.745 3.065 1.06 1.198.667 1.798 1.707 1.798 3.12 0 .616-.101 1.172-.303 1.67a3.734 3.734 0 01-.814 1.255 4.56 4.56 0 01-1.21.825c-.468.222-.953.38-1.458.47a7.719 7.719 0 01-1.57.158c-1.69 0-3.06-.419-4.107-1.256-1.046-.838-1.57-2.068-1.57-3.69h2.327c0 1.02.322 1.779.966 2.276.643.485 1.482.727 2.516.727.908 0 1.615-.19 2.12-.57.517-.392.775-.935.775-1.629 0-.445-.138-.805-.416-1.08a2.261 2.261 0 00-.87-.608c-.316-.118-.865-.281-1.647-.49a6.611 6.611 0 00-.208-.06c-1.678-.444-2.781-.811-3.311-1.099-1.098-.589-1.684-1.498-1.76-2.728v-.275c0-1.243.448-2.231 1.343-2.964.909-.746 2.12-1.119 3.634-1.119 1.463 0 2.655.36 3.576 1.08.92.72 1.406 1.825 1.457 3.317zm3.792-.275v1.355c.657-1.1 1.716-1.65 3.18-1.65 1.35 0 2.428.491 3.235 1.473.807.981 1.211 2.29 1.211 3.926 0 1.596-.397 2.879-1.192 3.847-.782.955-1.829 1.433-3.141 1.433-1.388 0-2.447-.53-3.179-1.59V36H85.27V22.122h2.025zm2.744 1.512c-.845 0-1.507.314-1.987.942-.479.628-.719 1.498-.719 2.61 0 1.1.24 1.963.72 2.591.491.629 1.166.943 2.024.943.82 0 1.47-.314 1.95-.942.478-.629.718-1.48.718-2.552 0-1.1-.246-1.97-.738-2.611-.48-.654-1.135-.981-1.968-.981zm6.099 1.609c.228-2.29 1.653-3.435 4.277-3.435 1.223 0 2.195.249 2.914.746.732.497 1.097 1.27 1.097 2.316v5.143c0 .288.032.484.095.589.076.105.214.157.416.157.152 0 .316-.013.492-.04v1.571c-.555.144-1.022.216-1.4.216-.921 0-1.451-.406-1.589-1.217-.82.811-1.962 1.217-3.425 1.217-1.01 0-1.81-.268-2.403-.805-.593-.55-.89-1.289-.89-2.218 0-.288.032-.556.095-.805.063-.248.132-.464.208-.648.088-.183.22-.353.397-.51.19-.157.34-.288.454-.392.126-.105.322-.203.587-.295.278-.091.48-.157.605-.196.14-.053.373-.105.7-.157.329-.053.543-.085.644-.098.114-.027.34-.06.681-.099.77-.104 1.293-.19 1.571-.255.277-.078.466-.19.567-.333.089-.105.133-.347.133-.727 0-1.02-.669-1.53-2.006-1.53-.706 0-1.224.137-1.552.412-.328.274-.536.739-.624 1.393h-2.044zm6.207 1.924a3.92 3.92 0 01-.568.255 5.11 5.11 0 01-.53.137c-.126.014-.334.04-.624.079l-.549.078a6.3 6.3 0 00-.624.118c-.152.026-.34.079-.568.157a1.491 1.491 0 00-.51.295 1.373 1.373 0 00-.303.451 1.527 1.527 0 00-.133.668c0 .484.151.857.454 1.118.316.262.75.393 1.306.393.959 0 1.696-.268 2.214-.805.29-.3.435-.883.435-1.747v-1.197zm12.69 1.256c-.151 1.243-.63 2.238-1.438 2.984-.807.733-1.823 1.099-3.046 1.099-1.464 0-2.63-.478-3.501-1.433-.87-.968-1.305-2.231-1.305-3.788 0-1.675.435-3.004 1.305-3.985.883-.995 2.069-1.492 3.558-1.492 1.248 0 2.251.327 3.008.982.77.654 1.218 1.563 1.344 2.728h-2.139c-.126-.641-.378-1.132-.756-1.472-.379-.34-.858-.51-1.439-.51-.832 0-1.488.327-1.967.98-.48.642-.719 1.525-.719 2.65 0 1.126.227 2.003.681 2.631.466.628 1.11.942 1.93.942.643 0 1.167-.196 1.57-.588.417-.406.682-.982.795-1.728h2.119zm9.834.667c-.24 1.1-.764 1.957-1.571 2.572-.795.615-1.747.922-2.857.922-1.476 0-2.649-.49-3.52-1.472-.858-.994-1.286-2.264-1.286-3.808 0-1.583.441-2.892 1.324-3.926.896-1.033 2.031-1.55 3.406-1.55 1.426 0 2.555.51 3.387 1.53.833 1.008 1.249 2.389 1.249 4.142v.236h-7.209c.025 1.02.271 1.813.738 2.375.466.55 1.116.825 1.949.825.592 0 1.072-.144 1.438-.432.378-.301.675-.772.889-1.414h2.063zm-2.025-2.846c-.063-.85-.322-1.518-.776-2.002-.441-.497-1.015-.746-1.722-.746-.706 0-1.28.236-1.722.707-.429.47-.694 1.151-.795 2.041h5.015zM9 34V14l11-3V0L0 8v32l20 8V37L9 34z" fill="#A7CC4A"/><path d="M20 19L9 14l11-3 6 3v20l-6 3-11-3 11-5V19z" fill="#1F2E3C"/></svg>