<svg width="60" height="53" fill="none" xmlns="http://www.w3.org/2000/svg"><path d="M12.286 52.696c9.694 0 17.3-9.943 19.986-26.15C34.956 10.338 30.63.395 20.936.395S3.735 10.388 1.05 26.545c-2.685 16.258 1.541 26.151 11.236 26.151zm.1-1.59c-8.9 0-12.231-9.62-9.745-24.56 2.585-15.686 9.694-24.56 18.295-24.56 8.8 0 12.206 9.67 9.745 24.56-2.61 15.735-9.794 24.56-18.296 24.56zM59.675 1.09H57.49L45.657 8.15l-.298 1.889 12.13-7.259h.299L49.633 52h1.591l8.452-50.91z" fill="#000" fill-opacity=".15"/></svg>