<svg width="67" height="53" fill="none" xmlns="http://www.w3.org/2000/svg"><path d="M12.286 52.696c9.694 0 17.3-9.943 19.986-26.15C34.956 10.338 30.63.395 20.936.395S3.735 10.388 1.05 26.545c-2.685 16.258 1.541 26.151 11.236 26.151zm.1-1.59c-8.9 0-12.231-9.62-9.745-24.56 2.585-15.686 9.694-24.56 18.295-24.56 8.8 0 12.206 9.67 9.745 24.56-2.61 15.735-9.794 24.56-18.296 24.56zM32.63 52h30.725l.298-1.59H35.415v-.2l17.998-17.798c9.346-9.247 12.428-13.224 13.323-18.892C68.03 5.963 63.256.395 55.6.395c-7.955 0-14.517 6.065-15.71 13.423h1.59C42.575 7.355 48.54 1.986 55.6 1.986c6.761 0 10.64 4.872 9.545 11.534-.795 5.07-3.58 8.85-12.826 17.898L32.83 50.708 32.631 52z" fill="#000" fill-opacity=".15"/></svg>