<svg width="69" height="53" fill="none" xmlns="http://www.w3.org/2000/svg"><path d="M12.286 52.696c9.694 0 17.3-9.943 19.986-26.15C34.956 10.338 30.63.395 20.936.395S3.735 10.388 1.05 26.545c-2.685 16.258 1.541 26.151 11.236 26.151zm.1-1.59c-8.9 0-12.231-9.62-9.745-24.56 2.585-15.686 9.694-24.56 18.295-24.56 8.8 0 12.206 9.67 9.745 24.56-2.61 15.735-9.794 24.56-18.296 24.56zm35.856 1.59c8.949 0 16.108-6.065 17.4-13.92 1.094-6.464-2.386-11.336-8.75-13.026v-.199c6.066-1.69 10.54-6.165 11.435-12.13C69.62 5.963 64.847.395 56.793.395c-7.954 0-14.716 5.568-16.008 13.423h1.59c1.094-6.96 7.458-11.832 14.518-11.832 7.258 0 10.937 4.872 9.843 11.434-1.093 7.06-7.755 11.534-15.412 11.534h-.795l-.199 1.591h.796c8.65 0 14.119 4.873 12.926 12.23-1.094 6.762-7.756 12.33-15.81 12.33-7.656 0-12.429-4.971-11.335-11.832h-1.591c-1.293 7.755 4.375 13.423 12.926 13.423z" fill="#000" fill-opacity=".15"/></svg>