<svg width="67" height="53" fill="none" xmlns="http://www.w3.org/2000/svg"><path d="M12.286 52.696c9.694 0 17.3-9.943 19.986-26.15C34.956 10.338 30.63.395 20.936.395S3.735 10.388 1.05 26.545c-2.685 16.258 1.541 26.151 11.236 26.151zm.1-1.59c-8.9 0-12.231-9.62-9.745-24.56 2.585-15.686 9.694-24.56 18.295-24.56 8.8 0 12.206 9.67 9.745 24.56-2.61 15.735-9.794 24.56-18.296 24.56zM34.42 40.067h23.391L55.8 52h1.59l1.99-11.932h6.363l.298-1.59h-6.413L65.841 1.09h-1.59L34.62 38.875l-.199 1.193zm23.665-1.59h-21.08v-.2L63.554 4.372h.15l-5.618 34.105z" fill="#000" fill-opacity=".15"/></svg>